<?xml version="1.0" standalone="no"?>
<!DOCTYPE svg PUBLIC "-//W3C//DTD SVG 1.1//EN"
  "http://www.w3.org/Graphics/SVG/1.1/DTD/svg11.dtd">
<svg baseProfile="full" height="100%" version="1.1" width="100%" xmlns="http://www.w3.org/2000/svg" xmlns:ev="http://www.w3.org/2001/xml-events" xmlns:xlink="http://www.w3.org/1999/xlink"><defs><marker fill="black" id="id49" markerHeight="10" markerUnits="strokeWidth" markerWidth="8" orient="auto" overflow="visible" refX="0" refY="5" stroke="none" viewBox="0 0 10 5"><path d="M 0 0 L 10 5 L 0 10 z" /></marker><marker fill="black" id="id50" markerHeight="10" markerUnits="strokeWidth" markerWidth="8" orient="auto" overflow="visible" refX="0" refY="5" stroke="none" viewBox="0 0 10 5"><path d="M 0 0 L 10 5 L 0 10 z" /></marker><marker fill="black" id="id51" markerHeight="10" markerUnits="strokeWidth" markerWidth="8" orient="auto" overflow="visible" refX="0" refY="5" stroke="none" viewBox="0 0 10 5"><path d="M 0 0 L 10 5 L 0 10 z" /></marker><marker fill="black" id="id52" markerHeight="10" markerUnits="strokeWidth" markerWidth="8" orient="auto" overflow="visible" refX="0" refY="5" stroke="none" viewBox="0 0 10 5"><path d="M 0 0 L 10 5 L 0 10 z" /></marker><marker fill="black" id="id53" markerHeight="10" markerUnits="strokeWidth" markerWidth="8" orient="auto" overflow="visible" refX="0" refY="5" stroke="none" viewBox="0 0 10 5"><path d="M 0 0 L 10 5 L 0 10 z" /></marker><marker fill="black" id="id54" markerHeight="10" markerUnits="strokeWidth" markerWidth="8" orient="auto" overflow="visible" refX="0" refY="5" stroke="none" viewBox="0 0 10 5"><path d="M 0 0 L 10 5 L 0 10 z" /></marker><marker fill="black" id="id55" markerHeight="10" markerUnits="strokeWidth" markerWidth="8" orient="auto" overflow="visible" refX="0" refY="5" stroke="none" viewBox="0 0 10 5"><path d="M 0 0 L 10 5 L 0 10 z" /></marker><marker fill="black" id="id56" markerHeight="10" markerUnits="strokeWidth" markerWidth="8" orient="auto" overflow="visible" refX="0" refY="5" stroke="none" viewBox="0 0 10 5"><path d="M 0 0 L 10 5 L 0 10 z" /></marker><marker fill="black" id="id57" markerHeight="10" markerUnits="strokeWidth" markerWidth="8" orient="auto" overflow="visible" refX="0" refY="5" stroke="none" viewBox="0 0 10 5"><path d="M 0 0 L 10 5 L 0 10 z" /></marker><marker fill="black" id="id58" markerHeight="10" markerUnits="strokeWidth" markerWidth="8" orient="auto" overflow="visible" refX="0" refY="5" stroke="none" viewBox="0 0 10 5"><path d="M 0 0 L 10 5 L 0 10 z" /></marker><marker fill="black" id="id59" markerHeight="10" markerUnits="strokeWidth" markerWidth="8" orient="auto" overflow="visible" refX="0" refY="5" stroke="none" viewBox="0 0 10 5"><path d="M 0 0 L 10 5 L 0 10 z" /></marker><marker fill="black" id="id60" markerHeight="10" markerUnits="strokeWidth" markerWidth="8" orient="auto" overflow="visible" refX="0" refY="5" stroke="none" viewBox="0 0 10 5"><path d="M 0 0 L 10 5 L 0 10 z" /></marker></defs><rect fill="#EBD9B2" height="30" stroke="#000000" width="107.25" x="378.40625" y="167" /><rect fill="#ffffff" height="20" stroke="rgb(0,0,0)" width="107.25" x="378.40625" y="197" /><rect fill="#EBD9B2" height="30" stroke="#000000" width="107.25" x="195" y="510.390625" /><rect fill="#ffffff" height="20" stroke="rgb(0,0,0)" width="107.25" x="195" y="540.390625" /><rect fill="#EBD9B2" height="30" stroke="#000000" width="107.25" x="386.625" y="394.796875" /><rect fill="#ffffff" height="20" stroke="rgb(0,0,0)" width="107.25" x="386.625" y="424.796875" /><rect fill="#EBD9B2" height="30" stroke="#000000" width="231.0" x="243.03125" y="234.1875" /><rect fill="#ffffff" height="50" stroke="rgb(0,0,0)" width="231.0" x="243.03125" y="264.1875" /><rect fill="#EBD9B2" height="30" stroke="#000000" width="99.0" x="594.03125" y="266" /><rect fill="#ffffff" height="80" stroke="rgb(0,0,0)" width="99.0" x="594.03125" y="296" /><rect fill="#EBD9B2" height="30" stroke="#000000" width="99.0" x="792.015625" y="159.984375" /><rect fill="#ffffff" height="65" stroke="rgb(0,0,0)" width="99.0" x="792.015625" y="189.984375" /><rect fill="#EBD9B2" height="30" stroke="#000000" width="121.0" x="1020.609375" y="202.1875" /><rect fill="#ffffff" height="80" stroke="rgb(0,0,0)" width="121.0" x="1020.609375" y="232.1875" /><rect fill="#EBD9B2" height="30" stroke="#000000" width="140.25" x="792.796875" y="364.796875" /><rect fill="#ffffff" height="50" stroke="rgb(0,0,0)" width="140.25" x="792.796875" y="394.796875" /><rect fill="#EBD9B2" height="30" stroke="#000000" width="115.5" x="672.234375" y="470" /><rect fill="#ffffff" height="65" stroke="rgb(0,0,0)" width="115.5" x="672.234375" y="500" /><rect fill="#EBD9B2" height="30" stroke="#000000" width="55.0" x="948.609375" y="509.984375" /><rect fill="#ffffff" height="50" stroke="rgb(0,0,0)" width="55.0" x="948.609375" y="539.984375" /><line marker-end="url(#id49)" stroke="#000000" x1="307.25" x2="238.03125" y1="550.390625" y2="279.1875" /><line marker-end="url(#id50)" stroke="#000000" x1="498.875" x2="589.03125" y1="434.796875" y2="341" /><line marker-end="url(#id51)" stroke="#000000" x1="490.65625" x2="589.03125" y1="207" y2="311" /><line marker-end="url(#id52)" stroke="#000000" x1="479.03125" x2="589.03125" y1="304.1875" y2="326" /><line marker-end="url(#id53)" stroke="#000000" x1="698.03125" x2="787.015625" y1="366" y2="204.984375" /><line marker-end="url(#id54)" stroke="#000000" x1="896.015625" x2="1015.609375" y1="244.984375" y2="262.1875" /><line marker-end="url(#id55)" stroke="#000000" x1="698.03125" x2="1015.609375" y1="366" y2="277.1875" /><line marker-end="url(#id56)" stroke="#000000" x1="896.015625" x2="1015.609375" y1="229.984375" y2="247.1875" /><line marker-end="url(#id57)" stroke="#000000" x1="1146.609375" x2="787.796875" y1="302.1875" y2="409.796875" /><line marker-end="url(#id58)" stroke="#000000" x1="307.25" x2="667.234375" y1="550.390625" y2="530" /><line marker-end="url(#id59)" stroke="#000000" x1="938.046875" x2="667.234375" y1="434.796875" y2="515" /><line marker-end="url(#id60)" stroke="#000000" x1="792.734375" x2="943.609375" y1="555" y2="554.984375" /><g style="font-family: Helvetica, Arial, FreeSans, Sans, sans, sans-serif;"><text style="font-size:14px" x="383.40625" y="187">Input dataset</text><text style="font-size:10px" x="383.40625" y="212">output</text><text style="font-size:14px" x="200" y="530.390625">Input dataset</text><text style="font-size:10px" x="200" y="555.390625">output</text><text style="font-size:14px" x="391.625" y="414.796875">Input dataset</text><text style="font-size:10px" x="391.625" y="439.796875">output</text><text style="font-size:14px" x="248.03125" y="254.1875">Generate sink from SBML file</text><text style="font-size:10px" x="248.03125" y="279.1875">Input GEM SBML model</text><text style="font-size:10px" x="248.03125" y="309.1875">outSink</text><text style="font-size:14px" x="599.03125" y="286">RetroPath2.0</text><text style="font-size:10px" x="599.03125" y="311">Source</text><text style="font-size:10px" x="599.03125" y="326">Sink</text><text style="font-size:10px" x="599.03125" y="341">Rules</text><text style="font-size:10px" x="599.03125" y="371">scopeCSV</text><text style="font-size:14px" x="797.015625" y="179.984375">RP2paths</text><text style="font-size:10px" x="797.015625" y="204.984375">RetroPath2.0 scope</text><text style="font-size:10px" x="797.015625" y="234.984375">out_paths</text><text style="font-size:10px" x="797.015625" y="249.984375">out_compounds</text><text style="font-size:14px" x="1025.609375" y="222.1875">RP reader</text><text style="font-size:10px" x="1025.609375" y="247.1875">RP2paths out_paths</text><text style="font-size:10px" x="1025.609375" y="262.1875">RP2paths compounts</text><text style="font-size:10px" x="1025.609375" y="277.1875">RP2paths scope results</text><text style="font-size:10px" x="1025.609375" y="307.1875">outSBMLzip</text><text style="font-size:14px" x="797.796875" y="384.796875">RP thermodynamics</text><text style="font-size:10px" x="797.796875" y="409.796875">rpSBML</text><text style="font-size:10px" x="797.796875" y="439.796875">outSBMLzip</text><text style="font-size:14px" x="677.234375" y="490">RP SBML merge</text><text style="font-size:10px" x="677.234375" y="515">rpSBML ZIP collection</text><text style="font-size:10px" x="677.234375" y="530">Input SBML file</text><text style="font-size:10px" x="677.234375" y="560">outSBMLzip</text><text style="font-size:14px" x="953.609375" y="529.984375">RP FBA</text><text style="font-size:10px" x="953.609375" y="554.984375">rpSBML</text><text style="font-size:10px" x="953.609375" y="584.984375">outSBMLzip</text><line stroke="rgb(0,0,0)" x1="243.03125" x2="474.03125" y1="289.1875" y2="289.1875" /><circle cx="302.25" cy="550.390625" fill="#ffffff" r="5" stroke="#000000" /><line stroke="rgb(0,0,0)" x1="594.03125" x2="693.03125" y1="351" y2="351" /><circle cx="493.875" cy="434.796875" fill="#ffffff" r="5" stroke="#000000" /><circle cx="485.65625" cy="207" fill="#ffffff" r="5" stroke="#000000" /><circle cx="474.03125" cy="304.1875" fill="#ffffff" r="5" stroke="#000000" /><line stroke="rgb(0,0,0)" x1="792.015625" x2="891.015625" y1="214.984375" y2="214.984375" /><circle cx="693.03125" cy="366" fill="#ffffff" r="5" stroke="#000000" /><line stroke="rgb(0,0,0)" x1="1020.609375" x2="1141.609375" y1="287.1875" y2="287.1875" /><circle cx="891.015625" cy="244.984375" fill="#ffffff" r="5" stroke="#000000" /><circle cx="693.03125" cy="366" fill="#ffffff" r="5" stroke="#000000" /><circle cx="891.015625" cy="229.984375" fill="#ffffff" r="5" stroke="#000000" /><line stroke="rgb(0,0,0)" x1="792.796875" x2="933.046875" y1="419.796875" y2="419.796875" /><circle cx="1141.609375" cy="302.1875" fill="#ffffff" r="5" stroke="#000000" /><line stroke="rgb(0,0,0)" x1="672.234375" x2="787.734375" y1="540" y2="540" /><circle cx="302.25" cy="550.390625" fill="#ffffff" r="5" stroke="#000000" /><circle cx="933.046875" cy="434.796875" fill="#ffffff" r="5" stroke="#000000" /><line stroke="rgb(0,0,0)" x1="948.609375" x2="1003.609375" y1="564.984375" y2="564.984375" /><circle cx="787.734375" cy="555" fill="#ffffff" r="5" stroke="#000000" /></g></svg>