<?xml version="1.0" standalone="no"?>
<!DOCTYPE svg PUBLIC "-//W3C//DTD SVG 1.1//EN"
  "http://www.w3.org/Graphics/SVG/1.1/DTD/svg11.dtd">
<svg baseProfile="full" height="100%" version="1.1" width="100%" xmlns="http://www.w3.org/2000/svg" xmlns:ev="http://www.w3.org/2001/xml-events" xmlns:xlink="http://www.w3.org/1999/xlink"><defs><marker fill="black" id="id1" markerHeight="10" markerUnits="strokeWidth" markerWidth="8" orient="auto" overflow="visible" refX="0" refY="5" stroke="none" viewBox="0 0 10 5"><path d="M 0 0 L 10 5 L 0 10 z" /></marker><marker fill="black" id="id2" markerHeight="10" markerUnits="strokeWidth" markerWidth="8" orient="auto" overflow="visible" refX="0" refY="5" stroke="none" viewBox="0 0 10 5"><path d="M 0 0 L 10 5 L 0 10 z" /></marker><marker fill="black" id="id3" markerHeight="10" markerUnits="strokeWidth" markerWidth="8" orient="auto" overflow="visible" refX="0" refY="5" stroke="none" viewBox="0 0 10 5"><path d="M 0 0 L 10 5 L 0 10 z" /></marker><marker fill="black" id="id4" markerHeight="10" markerUnits="strokeWidth" markerWidth="8" orient="auto" overflow="visible" refX="0" refY="5" stroke="none" viewBox="0 0 10 5"><path d="M 0 0 L 10 5 L 0 10 z" /></marker><marker fill="black" id="id5" markerHeight="10" markerUnits="strokeWidth" markerWidth="8" orient="auto" overflow="visible" refX="0" refY="5" stroke="none" viewBox="0 0 10 5"><path d="M 0 0 L 10 5 L 0 10 z" /></marker><marker fill="black" id="id6" markerHeight="10" markerUnits="strokeWidth" markerWidth="8" orient="auto" overflow="visible" refX="0" refY="5" stroke="none" viewBox="0 0 10 5"><path d="M 0 0 L 10 5 L 0 10 z" /></marker><marker fill="black" id="id7" markerHeight="10" markerUnits="strokeWidth" markerWidth="8" orient="auto" overflow="visible" refX="0" refY="5" stroke="none" viewBox="0 0 10 5"><path d="M 0 0 L 10 5 L 0 10 z" /></marker><marker fill="black" id="id8" markerHeight="10" markerUnits="strokeWidth" markerWidth="8" orient="auto" overflow="visible" refX="0" refY="5" stroke="none" viewBox="0 0 10 5"><path d="M 0 0 L 10 5 L 0 10 z" /></marker><marker fill="black" id="id9" markerHeight="10" markerUnits="strokeWidth" markerWidth="8" orient="auto" overflow="visible" refX="0" refY="5" stroke="none" viewBox="0 0 10 5"><path d="M 0 0 L 10 5 L 0 10 z" /></marker><marker fill="black" id="id10" markerHeight="10" markerUnits="strokeWidth" markerWidth="8" orient="auto" overflow="visible" refX="0" refY="5" stroke="none" viewBox="0 0 10 5"><path d="M 0 0 L 10 5 L 0 10 z" /></marker><marker fill="black" id="id11" markerHeight="10" markerUnits="strokeWidth" markerWidth="8" orient="auto" overflow="visible" refX="0" refY="5" stroke="none" viewBox="0 0 10 5"><path d="M 0 0 L 10 5 L 0 10 z" /></marker><marker fill="black" id="id12" markerHeight="10" markerUnits="strokeWidth" markerWidth="8" orient="auto" overflow="visible" refX="0" refY="5" stroke="none" viewBox="0 0 10 5"><path d="M 0 0 L 10 5 L 0 10 z" /></marker></defs><rect fill="#EBD9B2" height="30" stroke="#000000" width="107.25" x="378.40625" y="167" /><rect fill="#ffffff" height="20" stroke="rgb(0,0,0)" width="107.25" x="378.40625" y="197" /><rect fill="#EBD9B2" height="30" stroke="#000000" width="107.25" x="195" y="510.390625" /><rect fill="#ffffff" height="20" stroke="rgb(0,0,0)" width="107.25" x="195" y="540.390625" /><rect fill="#EBD9B2" height="30" stroke="#000000" width="107.25" x="386.625" y="394.796875" /><rect fill="#ffffff" height="20" stroke="rgb(0,0,0)" width="107.25" x="386.625" y="424.796875" /><rect fill="#EBD9B2" height="30" stroke="#000000" width="231.0" x="243.03125" y="234.1875" /><rect fill="#ffffff" height="50" stroke="rgb(0,0,0)" width="231.0" x="243.03125" y="264.1875" /><rect fill="#EBD9B2" height="30" stroke="#000000" width="99.0" x="594.03125" y="266" /><rect fill="#ffffff" height="80" stroke="rgb(0,0,0)" width="99.0" x="594.03125" y="296" /><rect fill="#EBD9B2" height="30" stroke="#000000" width="99.0" x="792.015625" y="159.984375" /><rect fill="#ffffff" height="65" stroke="rgb(0,0,0)" width="99.0" x="792.015625" y="189.984375" /><rect fill="#EBD9B2" height="30" stroke="#000000" width="121.0" x="1054.609375" y="209.1875" /><rect fill="#ffffff" height="80" stroke="rgb(0,0,0)" width="121.0" x="1054.609375" y="239.1875" /><rect fill="#EBD9B2" height="30" stroke="#000000" width="140.25" x="1138.796875" y="383.796875" /><rect fill="#ffffff" height="50" stroke="rgb(0,0,0)" width="140.25" x="1138.796875" y="413.796875" /><rect fill="#EBD9B2" height="30" stroke="#000000" width="115.5" x="1301.234375" y="483" /><rect fill="#ffffff" height="65" stroke="rgb(0,0,0)" width="115.5" x="1301.234375" y="513" /><rect fill="#EBD9B2" height="30" stroke="#000000" width="55.0" x="1467.609375" y="386.984375" /><rect fill="#ffffff" height="50" stroke="rgb(0,0,0)" width="55.0" x="1467.609375" y="416.984375" /><line marker-end="url(#id1)" stroke="#000000" x1="307.25" x2="238.03125" y1="550.390625" y2="279.1875" /><line marker-end="url(#id2)" stroke="#000000" x1="498.875" x2="589.03125" y1="434.796875" y2="341" /><line marker-end="url(#id3)" stroke="#000000" x1="490.65625" x2="589.03125" y1="207" y2="311" /><line marker-end="url(#id4)" stroke="#000000" x1="479.03125" x2="589.03125" y1="304.1875" y2="326" /><line marker-end="url(#id5)" stroke="#000000" x1="698.03125" x2="787.015625" y1="366" y2="204.984375" /><line marker-end="url(#id6)" stroke="#000000" x1="896.015625" x2="1049.609375" y1="244.984375" y2="269.1875" /><line marker-end="url(#id7)" stroke="#000000" x1="698.03125" x2="1049.609375" y1="366" y2="284.1875" /><line marker-end="url(#id8)" stroke="#000000" x1="896.015625" x2="1049.609375" y1="229.984375" y2="254.1875" /><line marker-end="url(#id9)" stroke="#000000" x1="1180.609375" x2="1133.796875" y1="309.1875" y2="428.796875" /><line marker-end="url(#id10)" stroke="#000000" x1="307.25" x2="1296.234375" y1="550.390625" y2="543" /><line marker-end="url(#id11)" stroke="#000000" x1="1284.046875" x2="1296.234375" y1="453.796875" y2="528" /><line marker-end="url(#id12)" stroke="#000000" x1="1421.734375" x2="1462.609375" y1="568" y2="431.984375" /><g style="font-family: Helvetica, Arial, FreeSans, Sans, sans, sans-serif;"><text style="font-size:14px" x="383.40625" y="187">Input dataset</text><text style="font-size:10px" x="383.40625" y="212">output</text><text style="font-size:14px" x="200" y="530.390625">Input dataset</text><text style="font-size:10px" x="200" y="555.390625">output</text><text style="font-size:14px" x="391.625" y="414.796875">Input dataset</text><text style="font-size:10px" x="391.625" y="439.796875">output</text><text style="font-size:14px" x="248.03125" y="254.1875">Generate sink from SBML file</text><text style="font-size:10px" x="248.03125" y="279.1875">Input GEM SBML model</text><text style="font-size:10px" x="248.03125" y="309.1875">outSink</text><text style="font-size:14px" x="599.03125" y="286">RetroPath2.0</text><text style="font-size:10px" x="599.03125" y="311">Source</text><text style="font-size:10px" x="599.03125" y="326">Sink</text><text style="font-size:10px" x="599.03125" y="341">Rules</text><text style="font-size:10px" x="599.03125" y="371">scopeCSV</text><text style="font-size:14px" x="797.015625" y="179.984375">RP2paths</text><text style="font-size:10px" x="797.015625" y="204.984375">RetroPath2.0 scope</text><text style="font-size:10px" x="797.015625" y="234.984375">out_paths</text><text style="font-size:10px" x="797.015625" y="249.984375">out_compounds</text><text style="font-size:14px" x="1059.609375" y="229.1875">RP reader</text><text style="font-size:10px" x="1059.609375" y="254.1875">RP2paths out_paths</text><text style="font-size:10px" x="1059.609375" y="269.1875">RP2paths compounts</text><text style="font-size:10px" x="1059.609375" y="284.1875">RP2paths scope results</text><text style="font-size:10px" x="1059.609375" y="314.1875">outSBMLzip</text><text style="font-size:14px" x="1143.796875" y="403.796875">RP thermodynamics</text><text style="font-size:10px" x="1143.796875" y="428.796875">rpSBML</text><text style="font-size:10px" x="1143.796875" y="458.796875">outSBMLzip</text><text style="font-size:14px" x="1306.234375" y="503">RP SBML merge</text><text style="font-size:10px" x="1306.234375" y="528">rpSBML ZIP collection</text><text style="font-size:10px" x="1306.234375" y="543">Input SBML file</text><text style="font-size:10px" x="1306.234375" y="573">outSBMLzip</text><text style="font-size:14px" x="1472.609375" y="406.984375">RP FBA</text><text style="font-size:10px" x="1472.609375" y="431.984375">rpSBML</text><text style="font-size:10px" x="1472.609375" y="461.984375">outSBMLzip</text><line stroke="rgb(0,0,0)" x1="243.03125" x2="474.03125" y1="289.1875" y2="289.1875" /><circle cx="302.25" cy="550.390625" fill="#ffffff" r="5" stroke="#000000" /><line stroke="rgb(0,0,0)" x1="594.03125" x2="693.03125" y1="351" y2="351" /><circle cx="493.875" cy="434.796875" fill="#ffffff" r="5" stroke="#000000" /><circle cx="485.65625" cy="207" fill="#ffffff" r="5" stroke="#000000" /><circle cx="474.03125" cy="304.1875" fill="#ffffff" r="5" stroke="#000000" /><line stroke="rgb(0,0,0)" x1="792.015625" x2="891.015625" y1="214.984375" y2="214.984375" /><circle cx="693.03125" cy="366" fill="#ffffff" r="5" stroke="#000000" /><line stroke="rgb(0,0,0)" x1="1054.609375" x2="1175.609375" y1="294.1875" y2="294.1875" /><circle cx="891.015625" cy="244.984375" fill="#ffffff" r="5" stroke="#000000" /><circle cx="693.03125" cy="366" fill="#ffffff" r="5" stroke="#000000" /><circle cx="891.015625" cy="229.984375" fill="#ffffff" r="5" stroke="#000000" /><line stroke="rgb(0,0,0)" x1="1138.796875" x2="1279.046875" y1="438.796875" y2="438.796875" /><circle cx="1175.609375" cy="309.1875" fill="#ffffff" r="5" stroke="#000000" /><line stroke="rgb(0,0,0)" x1="1301.234375" x2="1416.734375" y1="553" y2="553" /><circle cx="302.25" cy="550.390625" fill="#ffffff" r="5" stroke="#000000" /><circle cx="1279.046875" cy="453.796875" fill="#ffffff" r="5" stroke="#000000" /><line stroke="rgb(0,0,0)" x1="1467.609375" x2="1522.609375" y1="441.984375" y2="441.984375" /><circle cx="1416.734375" cy="568" fill="#ffffff" r="5" stroke="#000000" /></g></svg>